<?xml version="1.0" standalone="no"?>
<!DOCTYPE svg PUBLIC "-//W3C//DTD SVG 20010904//EN"
 "http://www.w3.org/TR/2001/REC-SVG-20010904/DTD/svg10.dtd">
<svg version="1.0" xmlns="http://www.w3.org/2000/svg"
 width="236.000000pt" height="227.000000pt" viewBox="0 0 236.000000 227.000000"
 preserveAspectRatio="xMidYMid meet">

<g transform="translate(0.000000,227.000000) scale(0.100000,-0.100000)"
fill="#000000" stroke="none">
<path d="M2100 2108 c-36 -28 -79 -56 -95 -63 -48 -21 -256 -57 -290 -51 -47
9 -163 69 -225 115 l-55 42 -80 -4 c-120 -6 -310 -26 -395 -42 -54 -10 -114
-34 -215 -84 -77 -38 -163 -77 -192 -86 -108 -34 -141 -117 -150 -386 -6 -173
2 -229 43 -291 36 -56 92 -81 195 -86 121 -6 210 11 320 64 52 24 129 51 171
61 43 9 75 20 71 26 -3 5 -26 19 -52 30 -40 18 -70 21 -216 23 -93 2 -176 3
-183 3 -19 1 -39 56 -47 128 -9 79 14 135 76 185 66 53 72 55 234 72 282 29
313 29 424 11 115 -20 236 -16 293 8 18 8 53 34 78 57 25 23 86 62 137 86 92
45 154 96 214 178 54 74 30 75 -61 4z"/>
</g>
</svg>
